<svg width="200" height="200" viewBox="0 0 200 200" fill="none" xmlns="http://www.w3.org/2000/svg">
<g clip-path="url(#clip0_105_467)">
<path d="M105.361 153.251L102.646 175.6C102.484 176.937 101.837 178.167 100.826 179.06C99.8164 179.952 98.5136 180.445 97.1642 180.445H23.6712C22.5044 180.445 21.3675 180.076 20.4238 179.392C19.4802 178.707 18.7782 177.742 18.4187 176.635L16.6172 171.088H76.6905C77.9584 171.088 79.1877 170.653 80.1718 169.856C81.1559 169.059 81.835 167.948 82.0949 166.71L85.3855 151.038L86.2155 147.079H99.8819C100.663 147.078 101.436 147.243 102.149 147.562C102.862 147.881 103.498 148.348 104.017 148.932C104.535 149.515 104.922 150.202 105.154 150.946C105.386 151.69 105.456 152.475 105.361 153.249V153.251Z" fill="#660066"/>
<path d="M85.3824 151.037L82.09 166.71C81.8301 167.948 81.1511 169.058 80.1669 169.856C79.1828 170.653 77.9535 171.088 76.6856 171.088H16.614L0.267908 120.759C-0.0899608 119.655 -0.0892855 118.467 0.269838 117.364C0.628961 116.261 1.32819 115.299 2.26782 114.615L9.78604 109.148L22.3394 147.253C22.7028 148.355 23.4055 149.314 24.3474 149.993C25.2893 150.673 26.4224 151.039 27.5851 151.039L85.3824 151.037Z" fill="#700070"/>
<path d="M105.187 151.038H27.594C26.4313 151.038 25.2982 150.672 24.3563 149.992C23.4144 149.312 22.7116 148.353 22.3483 147.251L9.79492 109.146L15.5151 104.987L28.1341 143.292C28.4975 144.393 29.2005 145.353 30.1428 146.032C31.085 146.712 32.2185 147.078 33.3815 147.078H99.8876C101.081 147.078 102.243 147.464 103.198 148.177C104.154 148.891 104.851 149.895 105.187 151.038Z" fill="#FFCC00"/>
<path d="M44.6243 147.081H33.3651C32.2024 147.081 31.0693 146.715 30.1274 146.035C29.1855 145.355 28.4827 144.396 28.1194 143.295L15.5039 104.987L21.6814 100.495C22.2391 100.086 22.8698 99.7863 23.5398 99.6123C24.8999 99.2587 26.3439 99.4357 27.5777 100.107C28.8114 100.779 29.742 101.894 30.1797 103.226L44.6243 147.081Z" fill="#FFAC00"/>
<path d="M44.6255 147.081H43.1743C42.0116 147.081 40.8786 146.715 39.9366 146.035C38.9947 145.355 38.292 144.396 37.9287 143.295L23.541 99.6123C24.9011 99.2587 26.3452 99.4357 27.5789 100.107C28.8127 100.779 29.7432 101.894 30.1809 103.226L44.6255 147.081Z" fill="#FF7900"/>
<path d="M9.78152 109.138L9.78125 109.138" stroke="black" stroke-miterlimit="10"/>
<path d="M85.3824 151.037L82.09 166.71C81.8301 167.948 81.1511 169.058 80.1669 169.856C79.1828 170.653 77.9535 171.088 76.6856 171.088H16.614L0.267908 120.759C-0.0899608 119.655 -0.0892855 118.467 0.269838 117.364C0.628961 116.261 1.32819 115.299 2.26782 114.615L9.78604 109.148L22.3394 147.253C22.7028 148.355 23.4055 149.314 24.3474 149.993C25.2893 150.673 26.4224 151.039 27.5851 151.039L85.3824 151.037Z" fill="#700070"/>
<path d="M105.187 151.038H27.594C26.4313 151.038 25.2982 150.672 24.3563 149.992C23.4144 149.312 22.7116 148.353 22.3483 147.251L9.79492 109.146L15.5151 104.987L28.1341 143.292C28.4975 144.393 29.2005 145.353 30.1428 146.032C31.085 146.712 32.2185 147.078 33.3815 147.078H99.8876C101.081 147.078 102.243 147.464 103.198 148.177C104.154 148.891 104.851 149.895 105.187 151.038Z" fill="#FFCC00"/>
<path d="M44.6243 147.081H33.3651C32.2024 147.081 31.0693 146.715 30.1274 146.035C29.1855 145.355 28.4827 144.396 28.1194 143.295L15.5039 104.987L21.6814 100.495C22.2391 100.086 22.8698 99.7863 23.5398 99.6123C24.8999 99.2587 26.3439 99.4357 27.5777 100.107C28.8114 100.779 29.742 101.894 30.1797 103.226L44.6243 147.081Z" fill="#FFAC00"/>
<path d="M44.6255 147.081H43.1743C42.0116 147.081 40.8786 146.715 39.9366 146.035C38.9947 145.355 38.292 144.396 37.9287 143.295L23.541 99.6123C24.9011 99.2587 26.3452 99.4357 27.5789 100.107C28.8127 100.779 29.7432 101.894 30.1809 103.226L44.6255 147.081Z" fill="#FF7900"/>
<path d="M9.78152 109.138L9.78125 109.138" stroke="black" stroke-miterlimit="10"/>
<path d="M54.16 128.337C53.5353 128.758 52.8305 129.047 52.0893 129.185L29.9143 133.386C28.5964 133.636 27.2323 133.399 26.0767 132.72C24.9212 132.04 24.0532 130.964 23.635 129.693L0.666219 59.9381C0.302009 58.8319 0.298709 57.639 0.656795 56.5309C1.01488 55.4227 1.71592 54.4562 2.65923 53.7702L7.31822 50.3783L26.2337 107.796C26.6486 109.055 27.5053 110.124 28.6465 110.804C29.7877 111.484 31.1367 111.731 32.4457 111.499L47.7185 108.789L51.6873 108.085L56.2962 122.052C56.6737 123.189 56.6694 124.417 56.2839 125.551C55.8984 126.685 55.1528 127.663 54.16 128.337Z" fill="#660066"/>
<path d="M29.8888 54.6598L47.7172 108.788L32.4443 111.497C31.1353 111.729 29.7863 111.482 28.6452 110.802C27.504 110.122 26.6473 109.054 26.2323 107.794L7.32031 50.3781L50.1278 19.2549C51.0715 18.5704 52.2084 18.2018 53.3753 18.2018C54.5421 18.2018 55.679 18.5704 56.6227 19.2549L64.3877 24.872L31.8835 48.4919C30.9399 49.1776 30.2385 50.144 29.8801 51.2522C29.5217 52.3604 29.5248 53.5534 29.8888 54.6598Z" fill="#700070"/>
<path d="M56.3035 122.052C56.6801 123.19 56.6745 124.419 56.2874 125.553C55.9004 126.687 55.153 127.665 54.1586 128.337L47.7189 108.789L29.8905 54.6599C29.5265 53.5536 29.5234 52.3606 29.8818 51.2524C30.2402 50.1442 30.9416 49.1778 31.8852 48.4921L64.386 24.8636L70.1114 29.0059L37.4622 52.7428C36.5189 53.4288 35.8179 54.3952 35.4598 55.5034C35.1017 56.6116 35.105 57.8045 35.4692 58.9107L37.2655 64.3832L38.9617 69.5375L51.6876 108.087L56.3035 122.052Z" fill="#FFCC00"/>
<path d="M76.34 42.3721L38.9784 69.5372L38.5332 68.1897L35.4807 58.9103C35.1165 57.8042 35.1132 56.6113 35.4712 55.5031C35.8293 54.3949 36.5304 53.4285 37.4737 52.7425L70.1211 29.0056L76.3072 33.48C77.0101 33.9887 77.5828 34.6557 77.9788 35.4266C78.3747 36.1975 78.5827 37.0507 78.5859 37.9169C78.5891 38.7831 78.3874 39.6378 77.9971 40.4116C77.6069 41.1854 77.0391 41.8565 76.34 42.3704V42.3721Z" fill="#FFAC00"/>
<path d="M76.3399 42.3721L38.9783 69.5371L38.5331 68.1896C38.169 67.0833 38.166 65.8903 38.5244 64.7821C38.8828 63.6739 39.5842 62.7075 40.5278 62.0218L77.7238 34.9789C78.4758 36.1566 78.7513 37.5753 78.4943 38.9478C78.2374 40.3204 77.4673 41.5443 76.3399 42.3721Z" fill="#FF7900"/>
<path d="M164.253 41.56L161.32 50.7171L129.052 27.2297C128.107 26.5429 126.968 26.1728 125.799 26.1728C124.63 26.1728 123.491 26.5429 122.547 27.2297L120.093 29.0143L112.174 34.764L76.7297 60.5144L69.5428 46.709C68.9345 45.5403 68.7663 44.1928 69.0686 42.911C69.3709 41.6291 70.1238 40.4978 71.1907 39.722L119.71 4.44275L162.251 35.4369C163.187 36.1189 163.884 37.0772 164.243 38.1762C164.603 39.2751 164.606 40.459 164.253 41.56Z" fill="#700070"/>
<path d="M76.737 60.5144L78.5834 64.0613L64.5374 74.2716C64.133 74.564 63.6709 74.7673 63.1818 74.8679C62.6926 74.9685 62.1875 74.9641 61.7002 74.8551C61.2128 74.746 60.7543 74.5348 60.3551 74.2354C59.9559 73.936 59.6252 73.5553 59.3849 73.1186L47.4786 51.4709C46.8329 50.2981 46.6373 48.9309 46.9285 47.6248C47.2197 46.3188 47.9777 45.1631 49.0609 44.3737L108.558 1.05937C109.503 0.370977 110.643 0 111.814 0C112.985 0 114.125 0.370977 115.07 1.05937L119.717 4.44446L71.198 39.7237C70.1311 40.4995 69.3782 41.6309 69.0759 42.9127C68.7736 44.1945 68.9418 45.542 69.5501 46.7107L76.737 60.5144Z" fill="#660066"/>
<path d="M161.325 50.7171L159.221 57.5217L126.686 33.8209C125.741 33.1333 124.601 32.7628 123.432 32.7628C122.262 32.7628 121.122 33.1333 120.177 33.8209L115.518 37.2025L111.125 40.3966L78.5793 64.0613L64.5334 74.2716C64.129 74.564 63.6669 74.7673 63.1777 74.8679C62.6885 74.9685 62.1835 74.9641 61.6961 74.8551C61.2088 74.746 60.7503 74.5348 60.3511 74.2354C59.9519 73.936 59.6212 73.5553 59.3809 73.1186L76.733 60.5144L122.545 27.228C123.489 26.5412 124.628 26.1711 125.797 26.1711C126.966 26.1711 128.105 26.5412 129.05 27.228L161.325 50.7171Z" fill="#FFCC00"/>
<path d="M159.22 57.5215L156.91 64.758C156.644 65.5894 156.184 66.3458 155.568 66.9651C154.951 67.5843 154.196 68.0487 153.365 68.3197C152.533 68.5908 151.649 68.661 150.784 68.5243C149.92 68.3877 149.101 68.0482 148.394 67.5339L111.133 40.3929L112.27 39.5669L120.176 33.8172C121.122 33.1292 122.262 32.7585 123.432 32.7585C124.602 32.7585 125.742 33.1292 126.687 33.8172L159.22 57.5215Z" fill="#FFAC00"/>
<path d="M155.897 66.6014C154.999 67.6794 153.723 68.3753 152.328 68.5473C150.933 68.7193 149.525 68.3546 148.391 67.5273L111.133 40.3933L112.27 39.5672C113.215 38.8792 114.355 38.5085 115.525 38.5085C116.695 38.5085 117.835 38.8792 118.78 39.5672L155.897 66.6014Z" fill="#FF7900"/>
<path d="M138.193 42.2069C137.104 41.4145 135.761 41.047 134.419 41.1738C133.076 41.3006 131.827 41.9129 130.906 42.8952L113.996 60.91C113.652 61.2757 113.391 61.7099 113.228 62.1839C113.065 62.658 113.006 63.161 113.053 63.6599C113.1 64.1587 113.252 64.6418 113.501 65.0774C113.749 65.513 114.087 65.891 114.493 66.1864L128.183 76.1679C128.187 76.1714 128.192 76.1733 128.198 76.1733C128.203 76.1733 128.208 76.1714 128.212 76.1679L131.001 73.3094L141.803 62.2265C142.73 61.2725 143.971 60.6847 145.298 60.5715C146.625 60.4583 147.949 60.8273 149.024 61.6105L197.947 97.2511C197.95 97.2532 197.953 97.2545 197.957 97.255C197.961 97.2555 197.964 97.2552 197.968 97.254C197.971 97.2528 197.974 97.2508 197.976 97.2482C197.979 97.2456 197.981 97.2425 197.982 97.2391L199.742 91.6977C200.091 90.598 200.085 89.4168 199.725 88.3206C199.365 87.2245 198.669 86.2687 197.735 85.5883L138.193 42.2069Z" fill="#660066"/>
<path d="M197.977 97.2633L182.129 147.188C181.775 148.303 181.075 149.276 180.129 149.968C179.183 150.659 178.041 151.032 176.868 151.032H167.145L179.284 113.134C179.637 112.033 179.633 110.849 179.273 109.75C178.914 108.651 178.217 107.693 177.281 107.011L131.012 73.2958L141.814 62.213C142.742 61.2623 143.983 60.678 145.309 60.5673C146.635 60.4566 147.956 60.8271 149.03 61.6106L197.977 97.2633Z" fill="#700070"/>
<path d="M179.283 113.134L167.144 151.032H160.079L172.281 112.936C172.633 111.835 172.63 110.651 172.27 109.552C171.911 108.453 171.213 107.494 170.277 106.813L165.561 103.371L161.154 100.161L114.502 66.1812C114.097 65.8858 113.759 65.5078 113.51 65.0722C113.262 64.6367 113.109 64.1535 113.062 63.6547C113.015 63.1559 113.075 62.6528 113.238 62.1787C113.4 61.7047 113.662 61.2705 114.005 60.9048L177.278 107.011C178.214 107.692 178.912 108.65 179.272 109.749C179.632 110.848 179.636 112.032 179.283 113.134Z" fill="#FFCC00"/>
<path d="M172.285 112.936L160.083 151.032H152.425C151.558 151.034 150.701 150.832 149.927 150.442C149.152 150.052 148.481 149.485 147.968 148.787C147.454 148.089 147.114 147.28 146.973 146.426C146.833 145.572 146.896 144.696 147.159 143.871L161.158 100.16L162.351 101.02L162.39 101.051L170.281 106.797C171.221 107.48 171.92 108.441 172.28 109.543C172.639 110.645 172.641 111.833 172.285 112.936Z" fill="#FFAC00"/>
<path d="M164.352 107.16L150.418 150.661C149.112 150.153 148.048 149.169 147.442 147.909C146.837 146.648 146.735 145.205 147.157 143.871L161.156 100.16L162.348 101.02L162.388 101.051C163.314 101.737 164.002 102.695 164.354 103.791C164.706 104.887 164.705 106.065 164.352 107.16Z" fill="#FF7900"/>
<path d="M153.138 142.163L134.612 200H81.7347C80.578 200 79.4504 199.638 78.5111 198.965C77.5717 198.292 76.868 197.342 76.4993 196.248L73.4141 187.093L113.53 187.265C114.704 187.27 115.85 186.901 116.8 186.212C117.751 185.523 118.456 184.55 118.813 183.434L136.214 129.113L150.173 135.48C151.401 136.04 152.381 137.029 152.927 138.26C153.473 139.492 153.548 140.88 153.138 142.163Z" fill="#700070"/>
<path d="M142.596 109.193C142.145 108.98 141.654 108.865 141.156 108.857C140.657 108.849 140.163 108.947 139.705 109.145C139.248 109.342 138.838 109.635 138.503 110.004C138.168 110.373 137.917 110.808 137.765 111.282L132.588 127.459L136.224 129.116L150.183 135.484C151.412 136.044 152.391 137.033 152.938 138.265C153.484 139.496 153.559 140.885 153.148 142.168L134.614 200H140.361C141.533 200 142.674 199.629 143.619 198.94C144.565 198.251 145.267 197.28 145.623 196.167L167.944 126.469C168.351 125.2 168.282 123.826 167.751 122.603C167.219 121.381 166.261 120.392 165.054 119.82L142.596 109.193Z" fill="#660066"/>
<path d="M142.594 109.193L118.812 183.438C118.455 184.554 117.749 185.527 116.799 186.216C115.849 186.905 114.703 187.274 113.529 187.268L73.4129 187.096L71.1387 180.349L102.061 180.385H111.592C112.764 180.385 113.905 180.014 114.85 179.325C115.796 178.636 116.498 177.665 116.854 176.552L120.253 165.941L137.757 111.282C137.909 110.808 138.161 110.373 138.496 110.004C138.83 109.635 139.24 109.342 139.698 109.145C140.155 108.947 140.65 108.849 141.148 108.857C141.647 108.865 142.138 108.98 142.589 109.193H142.594Z" fill="#FFCC00"/>
<path d="M103.818 165.934L102.643 175.601C102.498 176.794 101.965 177.908 101.125 178.771C100.286 179.634 99.1861 180.2 97.9941 180.381H111.595C112.766 180.381 113.906 180.01 114.851 179.322C115.797 178.633 116.498 177.663 116.854 176.55L120.254 165.937L103.818 165.934Z" fill="#FFAC00"/>
<path d="M120.26 165.937L119.851 167.209C119.495 168.322 118.794 169.292 117.848 169.981C116.903 170.67 115.763 171.042 114.592 171.042H103.203L103.824 165.934L120.26 165.937Z" fill="#FF7900"/>
<path d="M95.1519 138.798C113.875 138.798 129.054 123.66 129.054 104.987C129.054 86.3133 113.875 71.1754 95.1519 71.1754C76.4284 71.1754 61.25 86.3133 61.25 104.987C61.25 123.66 76.4284 138.798 95.1519 138.798Z" fill="#FFCC00"/>
<path d="M95.153 131.021C109.57 131.021 121.257 119.365 121.257 104.987C121.257 90.6085 109.57 78.9525 95.153 78.9525C80.736 78.9525 69.0488 90.6085 69.0488 104.987C69.0488 119.365 80.736 131.021 95.153 131.021Z" fill="#FF9919"/>
<path d="M95.154 113.881C100.079 113.881 104.072 109.899 104.072 104.987C104.072 100.075 100.079 96.093 95.154 96.093C90.2289 96.093 86.2363 100.075 86.2363 104.987C86.2363 109.899 90.2289 113.881 95.154 113.881Z" fill="#FF7900"/>
</g>
<defs>
<clipPath id="clip0_105_467">
<rect width="200" height="200" fill="white"/>
</clipPath>
</defs>
</svg>
